<svg width="236" height="26" viewBox="0 0 236 26" fill="none" xmlns="http://www.w3.org/2000/svg">
<path fill-rule="evenodd" clip-rule="evenodd" d="M75.6512 23.3036C75.6512 23.8105 75.3959 24.0639 74.8852 24.0639H65.8883C65.671 24.0639 65.4944 24.0006 65.3586 23.8738C65.2228 23.7471 65.1549 23.5681 65.1549 23.3367C65.1549 23.1383 65.201 22.9785 65.2934 22.8573C65.3858 22.7361 65.5297 22.6369 65.7253 22.5598L66.4262 22.3449C66.6 22.2898 66.7358 22.1851 66.8336 22.0309C66.9314 21.8766 66.9803 21.6562 66.9803 21.3697V11.816C66.9803 11.6617 66.9423 11.5322 66.8662 11.4276C66.7902 11.3229 66.6489 11.2265 66.4425 11.1383L65.4971 10.8243C65.2472 10.703 65.0679 10.5736 64.9593 10.4358C64.8506 10.2981 64.7963 10.13 64.7963 9.93169C64.7963 9.73335 64.8642 9.57081 65 9.44409L65.0534 9.39954C65.1835 9.30252 65.3532 9.25401 65.5623 9.25401H66.9925L66.9813 9.15742C66.9508 8.96424 66.8744 8.7788 66.7521 8.60112C66.5891 8.3642 66.4044 8.09698 66.198 7.79946C65.9915 7.50194 65.8068 7.14657 65.6438 6.73335C65.4808 6.32012 65.3993 5.81048 65.3993 5.20442C65.3993 3.7609 65.8883 2.60663 66.8662 1.74161C67.8441 0.876599 69.235 0.444092 71.0387 0.444092C72.2013 0.444092 73.1657 0.63142 73.9317 1.00608C74.6977 1.38073 75.2709 1.87935 75.6512 2.50194C76.0315 3.12453 76.2217 3.80497 76.2217 4.54327C76.2217 5.41379 75.9962 6.06668 75.5453 6.50194C75.0943 6.9372 74.5157 7.15484 73.8095 7.15484C73.0271 7.15484 72.3969 6.90139 71.9188 6.39451C71.4407 5.88762 71.2017 5.21544 71.2017 4.37798V2.9069C71.2017 2.52123 71.1256 2.23748 70.9735 2.05566C70.8214 1.87384 70.5877 1.78293 70.2726 1.78293C69.8706 1.78293 69.5664 1.92068 69.3599 2.19616C69.1535 2.47164 69.0502 2.86833 69.0502 3.38624C69.0502 3.91517 69.1725 4.41103 69.417 4.87384C69.6614 5.33665 69.963 5.76916 70.3215 6.17136C70.6801 6.57357 71.0387 6.95924 71.3973 7.32839C71.7558 7.69754 72.0573 8.06117 72.3018 8.4193L72.3715 8.52665C72.5035 8.7412 72.5915 8.95475 72.6355 9.16731L72.6504 9.25401H75.0645C75.3144 9.25401 75.5072 9.30635 75.6431 9.41103C75.7789 9.51572 75.8468 9.67825 75.8468 9.89864C75.8468 10.2292 75.7055 10.4992 75.423 10.7086C75.1405 10.9179 74.695 11.0226 74.0865 11.0226H72.9293V21.3201C72.9293 21.6287 72.9755 21.8656 73.0679 22.0309C73.1602 22.1962 73.3096 22.2953 73.5161 22.3284L74.9178 22.5433C75.1677 22.5763 75.3524 22.6562 75.4719 22.7829C75.5914 22.9097 75.6512 23.0832 75.6512 23.3036ZM43.5591 23.6838C42.5812 24.1576 41.4403 24.3945 40.1364 24.3945C38.7564 24.3945 37.5205 24.1025 36.4284 23.5185C35.3364 22.9345 34.4753 22.0887 33.8451 20.9813C33.2149 19.8738 32.8998 18.5267 32.8998 16.94C32.8998 15.4083 33.2285 14.0391 33.8859 12.8325C34.5432 11.6259 35.4587 10.6727 36.6322 9.97302C37.8057 9.27329 39.1748 8.92343 40.7394 8.92343C42.0759 8.92343 43.2033 9.12178 44.1214 9.51847C45.0396 9.91517 45.7404 10.4524 46.2239 11.13C46.7075 11.8077 46.9492 12.5653 46.9492 13.4028C46.9492 14.2843 46.6966 14.9758 46.1913 15.4771C45.6861 15.9785 44.9988 16.2292 44.1296 16.2292C43.2386 16.2292 42.5622 15.973 42.1004 15.4606C41.6386 14.9482 41.4077 14.2457 41.4077 13.3532V12.2953C41.4077 11.7554 41.3099 11.3477 41.1143 11.0722C40.9187 10.7967 40.6417 10.659 40.2831 10.659C39.9245 10.659 39.6013 10.805 39.3133 11.097C39.0254 11.389 38.8026 11.827 38.6451 12.411C38.4875 12.9951 38.4087 13.7168 38.4087 14.5763C38.4087 15.8105 38.5907 16.8463 38.9547 17.6838C39.3187 18.5212 39.8159 19.1493 40.4461 19.5681C41.0763 19.9868 41.7934 20.1962 42.5975 20.1962C43.4016 20.1962 44.0752 20.0777 44.6185 19.8408C45.1618 19.6039 45.5801 19.2044 45.8735 18.6424C46.0365 18.4882 46.1642 18.389 46.2565 18.3449C46.3489 18.3008 46.4385 18.2788 46.5255 18.2788C46.6341 18.2898 46.7238 18.3422 46.7944 18.4358C46.865 18.5295 46.8949 18.6755 46.884 18.8738C46.7971 19.9537 46.4657 20.9069 45.8898 21.7333C45.3139 22.5598 44.537 23.2099 43.5591 23.6838ZM60.1267 23.3532C58.9043 24.0254 57.4836 24.3614 55.8646 24.3614C54.2891 24.3614 52.9064 24.0336 51.7166 23.378C50.5268 22.7223 49.6005 21.816 48.9377 20.659C48.2749 19.5019 47.9435 18.1631 47.9435 16.6424C47.9435 15.1879 48.2912 13.8794 48.9866 12.7168C49.682 11.5543 50.6436 10.6314 51.8714 9.94822C53.0993 9.26503 54.5118 8.92343 56.1091 8.92343C57.6955 8.92343 59.0809 9.25401 60.2653 9.91517C61.4496 10.5763 62.3732 11.4909 63.036 12.659C63.6988 13.827 64.0303 15.1769 64.0303 16.7086C64.0303 18.1631 63.6853 19.4661 62.9953 20.6176C62.3053 21.7692 61.3491 22.681 60.1267 23.3532ZM57.1033 22.6424C56.7665 22.7086 56.4378 22.5598 56.1172 22.1962C55.7967 21.8325 55.4925 21.221 55.2045 20.3614C54.9166 19.5019 54.6422 18.3725 54.3814 16.973C54.1315 15.5736 53.9903 14.4221 53.9577 13.5185C53.9251 12.6149 53.9903 11.9317 54.1533 11.4689C54.3162 11.0061 54.5662 10.7361 54.903 10.659C55.2398 10.5929 55.5685 10.7416 55.8891 11.1052C56.2096 11.4689 56.5166 12.0805 56.8099 12.94C57.1033 13.7995 57.3804 14.9289 57.6412 16.3284C57.9019 17.7278 58.0459 18.8821 58.0731 19.7912C58.1003 20.7003 58.0296 21.3862 57.8612 21.8491C57.6928 22.3119 57.4402 22.5763 57.1033 22.6424ZM86.2616 24.0639C86.7723 24.0639 87.0277 23.8105 87.0277 23.3036C87.0277 23.0832 86.9679 22.9097 86.8484 22.7829C86.7289 22.6562 86.5442 22.5763 86.2942 22.5433L84.8926 22.3284C84.6861 22.2953 84.5367 22.1962 84.4443 22.0309C84.352 21.8656 84.3058 21.6287 84.3058 21.3201V11.0226H85.463C86.0715 11.0226 86.517 10.9179 86.7995 10.7086C87.082 10.4992 87.2233 10.2292 87.2233 9.89864C87.2233 9.67825 87.1554 9.51572 87.0195 9.41103C86.8837 9.30635 86.6908 9.25401 86.4409 9.25401H84.0269L84.012 9.16731C83.968 8.95475 83.88 8.7412 83.748 8.52665L83.6783 8.4193C83.4338 8.06117 83.1323 7.69754 82.7737 7.32839C82.4152 6.95924 82.0566 6.57357 81.698 6.17136C81.3394 5.76916 81.0379 5.33665 80.7934 4.87384C80.549 4.41103 80.4267 3.91517 80.4267 3.38624C80.4267 2.86833 80.5299 2.47164 80.7364 2.19616C80.9428 1.92068 81.2471 1.78293 81.6491 1.78293C81.9642 1.78293 82.1978 1.87384 82.35 2.05566C82.5021 2.23748 82.5781 2.52123 82.5781 2.9069V4.37798C82.5781 5.21544 82.8172 5.88762 83.2953 6.39451C83.7734 6.90139 84.4036 7.15484 85.1859 7.15484C85.8922 7.15484 86.4708 6.9372 86.9217 6.50194C87.3727 6.06668 87.5981 5.41379 87.5981 4.54327C87.5981 3.80497 87.408 3.12453 87.0277 2.50194C86.6474 1.87935 86.0742 1.38073 85.3082 1.00608C84.5421 0.63142 83.5778 0.444092 82.4152 0.444092C80.6114 0.444092 79.2206 0.876599 78.2427 1.74161C77.2648 2.60663 76.7758 3.7609 76.7758 5.20442C76.7758 5.81048 76.8573 6.32012 77.0203 6.73335C77.1833 7.14657 77.368 7.50194 77.5745 7.79946C77.7809 8.09698 77.9656 8.3642 78.1286 8.60112C78.2508 8.7788 78.3272 8.96424 78.3578 9.15742L78.369 9.25401H76.9388C76.7296 9.25401 76.56 9.30252 76.4299 9.39954L76.3765 9.44409C76.2407 9.57081 76.1728 9.73335 76.1728 9.93169C76.1728 10.13 76.2271 10.2981 76.3358 10.4358C76.4444 10.5736 76.6237 10.703 76.8736 10.8243L77.8189 11.1383C78.0254 11.2265 78.1666 11.3229 78.2427 11.4276C78.3188 11.5322 78.3568 11.6617 78.3568 11.816V21.3697C78.3568 21.6562 78.3079 21.8766 78.2101 22.0309C78.1123 22.1851 77.9765 22.2898 77.8026 22.3449L77.1018 22.5598C76.9062 22.6369 76.7622 22.7361 76.6699 22.8573C76.5775 22.9785 76.5313 23.1383 76.5313 23.3367C76.5313 23.5681 76.5992 23.7471 76.7351 23.8738C76.8709 24.0006 77.0475 24.0639 77.2648 24.0639H86.2616ZM99.0235 23.5846C97.9695 24.1245 96.7526 24.3945 95.3726 24.3945C93.8514 24.3945 92.5149 24.0777 91.3631 23.4441C90.2114 22.8105 89.3122 21.9234 88.6657 20.7829C88.0192 19.6424 87.6959 18.3229 87.6959 16.8243C87.6959 15.2485 88.0083 13.8683 88.6331 12.6838C89.2579 11.4992 90.1625 10.5763 91.3468 9.91517C92.5312 9.25401 93.9546 8.92343 95.6171 8.92343C97.0296 8.92343 98.2466 9.20167 99.268 9.75814C100.289 10.3146 101.074 11.0694 101.623 12.0226C102.172 12.9758 102.446 14.0364 102.446 15.2044C102.446 15.7113 102.31 16.1108 102.039 16.4028L101.974 16.4676C101.706 16.7164 101.337 16.8408 100.865 16.8408H93.4145L93.4305 16.917C93.6282 17.8245 93.9659 18.5511 94.4436 19.097C95.2585 20.0281 96.3451 20.4937 97.7033 20.4937C98.5726 20.4937 99.3413 20.2953 100.01 19.8986C100.678 19.5019 101.126 18.951 101.354 18.2457C101.485 18.1025 101.601 18.0061 101.705 17.9565C101.808 17.9069 101.898 17.8821 101.974 17.8821C102.082 17.8821 102.175 17.9262 102.251 18.0143C102.327 18.1025 102.365 18.2513 102.365 18.4606C102.365 19.5405 102.071 20.5295 101.485 21.4276C100.898 22.3256 100.077 23.0446 99.0235 23.5846ZM93.2444 15.5158C93.2289 15.2622 93.2212 14.9987 93.2212 14.7251C93.2212 13.6893 93.2972 12.8738 93.4494 12.2788C93.6015 11.6838 93.7971 11.2623 94.0361 11.0143C94.2752 10.7664 94.5414 10.6424 94.8347 10.6424C95.215 10.6424 95.5709 10.9675 95.9023 11.6176C96.2337 12.2678 96.3994 13.3477 96.3994 14.8573C96.3994 15.3201 96.193 15.5515 95.7801 15.5515H93.2465L93.2444 15.5158ZM114.605 23.5846C113.551 24.1245 112.334 24.3945 110.954 24.3945C109.433 24.3945 108.096 24.0777 106.945 23.4441C105.793 22.8105 104.894 21.9234 104.247 20.7829C103.601 19.6424 103.277 18.3229 103.277 16.8243C103.277 15.2485 103.59 13.8683 104.215 12.6838C104.839 11.4992 105.744 10.5763 106.928 9.91517C108.113 9.25401 109.536 8.92343 111.199 8.92343C112.611 8.92343 113.828 9.20167 114.85 9.75814C115.871 10.3146 116.656 11.0694 117.205 12.0226C117.753 12.9758 118.028 14.0364 118.028 15.2044C118.028 15.7113 117.892 16.1108 117.62 16.4028L117.555 16.4676C117.288 16.7164 116.918 16.8408 116.447 16.8408H108.996L109.012 16.917C109.21 17.8245 109.547 18.5511 110.025 19.097C110.84 20.0281 111.927 20.4937 113.285 20.4937C114.154 20.4937 114.923 20.2953 115.591 19.8986C116.259 19.5019 116.708 18.951 116.936 18.2457C117.066 18.1025 117.183 18.0061 117.286 17.9565C117.389 17.9069 117.479 17.8821 117.555 17.8821C117.664 17.8821 117.756 17.9262 117.832 18.0143C117.908 18.1025 117.946 18.2513 117.946 18.4606C117.946 19.5405 117.653 20.5295 117.066 21.4276C116.479 22.3256 115.659 23.0446 114.605 23.5846ZM108.826 15.5158C108.81 15.2622 108.803 14.9987 108.803 14.7251C108.803 13.6893 108.879 12.8738 109.031 12.2788C109.183 11.6838 109.379 11.2623 109.618 11.0143C109.857 10.7664 110.123 10.6424 110.416 10.6424C110.797 10.6424 111.152 10.9675 111.484 11.6176C111.815 12.2678 111.981 13.3477 111.981 14.8573C111.981 15.3201 111.775 15.5515 111.362 15.5515H108.828L108.826 15.5158ZM128.5 23.8573C128.364 23.9951 128.166 24.0639 127.905 24.0639H119.755C119.516 24.0639 119.329 23.9978 119.193 23.8656C119.057 23.7333 118.989 23.5515 118.989 23.3201C118.989 23.1438 119.03 22.9978 119.112 22.8821C119.193 22.7664 119.304 22.659 119.446 22.5598L119.821 22.411C119.962 22.3449 120.06 22.2402 120.114 22.097C120.168 21.9537 120.195 21.7168 120.195 21.3862V12.9895C120.195 12.7251 120.166 12.535 120.106 12.4193C120.046 12.3036 119.946 12.2127 119.804 12.1466L119.381 12.097C119.228 12.0088 119.117 11.9152 119.046 11.816C118.976 11.7168 118.94 11.5901 118.94 11.4358C118.94 11.2595 118.995 11.1025 119.103 10.9648C119.212 10.827 119.397 10.7086 119.658 10.6094L124.286 9.27054C124.558 9.16035 124.786 9.08321 124.971 9.03913C125.156 8.99506 125.313 8.97302 125.444 8.97302C125.628 8.97302 125.767 9.03913 125.859 9.17136L125.889 9.21932C125.965 9.35754 126.018 9.57847 126.047 9.88211L126.171 12.4505L126.199 12.3557C126.254 12.1768 126.315 12.0052 126.381 11.8408C126.777 10.8546 127.302 10.1218 127.954 9.64244C128.606 9.1631 129.317 8.92343 130.089 8.92343C131.023 8.92343 131.74 9.23748 132.24 9.86558C132.74 10.4937 132.99 11.4468 132.99 12.7251C132.99 13.9923 132.729 14.9234 132.208 15.5185C131.686 16.1135 131.012 16.411 130.187 16.411C129.382 16.411 128.788 16.2072 128.402 15.7995C128.016 15.3917 127.812 14.8132 127.791 14.0639L127.774 13.4028C127.763 13.1493 127.715 12.951 127.628 12.8077C127.541 12.6645 127.399 12.5929 127.204 12.5929C127.008 12.5929 126.837 12.6948 126.691 12.8986C126.544 13.1025 126.432 13.4138 126.356 13.8325C126.28 14.2513 126.242 14.7857 126.242 15.4358V21.254C126.242 21.5625 126.291 21.8077 126.389 21.9895C126.487 22.1714 126.639 22.2843 126.845 22.3284L128.068 22.5763C128.296 22.6094 128.459 22.6948 128.557 22.8325C128.654 22.9703 128.703 23.1328 128.703 23.3201C128.703 23.5405 128.635 23.7196 128.5 23.8573ZM141.53 24.3614C143.149 24.3614 144.57 24.0254 145.793 23.3532C147.015 22.681 147.971 21.7692 148.661 20.6176C149.351 19.4661 149.696 18.1631 149.696 16.7086C149.696 15.1769 149.365 13.827 148.702 12.659C148.039 11.4909 147.115 10.5763 145.931 9.91517C144.747 9.25401 143.361 8.92343 141.775 8.92343C140.178 8.92343 138.765 9.26503 137.537 9.94822C136.309 10.6314 135.348 11.5543 134.652 12.7168C133.957 13.8794 133.609 15.1879 133.609 16.6424C133.609 18.1631 133.941 19.5019 134.604 20.659C135.266 21.816 136.193 22.7223 137.382 23.378C138.572 24.0336 139.955 24.3614 141.53 24.3614ZM141.783 22.1962C142.104 22.5598 142.432 22.7086 142.769 22.6424C143.106 22.5763 143.359 22.3119 143.527 21.8491C143.695 21.3862 143.766 20.7003 143.739 19.7912C143.712 18.8821 143.568 17.7278 143.307 16.3284C143.046 14.9289 142.769 13.7995 142.476 12.94C142.182 12.0805 141.875 11.4689 141.555 11.1052C141.234 10.7416 140.906 10.5929 140.569 10.659C140.232 10.7361 139.982 11.0061 139.819 11.4689C139.656 11.9317 139.591 12.6149 139.624 13.5185C139.656 14.4221 139.797 15.5736 140.047 16.973C140.308 18.3725 140.582 19.5019 140.87 20.3614C141.158 21.221 141.463 21.8325 141.783 22.1962ZM162.621 24.3945C163.534 24.3945 164.283 24.2265 164.87 23.8904C165.457 23.5543 165.894 23.1548 166.182 22.692C166.47 22.2292 166.614 21.805 166.614 21.4193C166.614 21.254 166.579 21.1163 166.508 21.0061C166.438 20.8959 166.342 20.8408 166.223 20.8408C166.169 20.8408 166.12 20.8518 166.076 20.8738C166.033 20.8959 165.995 20.9289 165.962 20.973C165.908 21.1714 165.824 21.3091 165.71 21.3862C165.595 21.4634 165.473 21.5019 165.343 21.5019C165.158 21.5019 165.02 21.4386 164.927 21.3119C164.835 21.1851 164.789 21.0171 164.789 20.8077V13.5019C164.789 12.0474 164.297 10.9207 163.314 10.1218C162.33 9.32288 160.79 8.92343 158.693 8.92343C157.063 8.92343 155.702 9.12729 154.61 9.535C153.518 9.94271 152.698 10.4634 152.149 11.097C151.6 11.7306 151.326 12.378 151.326 13.0391C151.326 13.7444 151.53 14.2816 151.937 14.6507C152.345 15.0198 152.934 15.2044 153.706 15.2044C154.651 15.2044 155.395 14.9482 155.938 14.4358C156.482 13.9234 156.753 13.2595 156.753 12.4441V11.1879C156.753 10.8794 156.848 10.6397 157.039 10.4689C157.229 10.2981 157.465 10.2127 157.748 10.2127C158.052 10.2127 158.294 10.3256 158.473 10.5515C158.652 10.7774 158.742 11.0832 158.742 11.4689L158.741 16.2871L158.655 16.2682C158.393 16.2176 158.089 16.1887 157.744 16.1814L157.568 16.1796C155.232 16.1796 153.491 16.5763 152.345 17.3697C151.198 18.1631 150.625 19.2705 150.625 20.692C150.625 21.7719 151.019 22.659 151.807 23.3532C152.595 24.0474 153.64 24.3945 154.944 24.3945C155.922 24.3945 156.835 24.1934 157.682 23.7912C158.318 23.4895 158.835 23.0934 159.232 22.6027L159.254 22.574L159.278 22.648C159.404 23.0053 159.633 23.3253 159.967 23.6083L160.07 23.692C160.673 24.1603 161.523 24.3945 162.621 24.3945ZM157.006 21.2788C157.272 21.6369 157.623 21.816 158.057 21.816L158.151 21.8128C158.336 21.7999 158.515 21.7482 158.688 21.6578L158.741 21.6277V17.3862L158.66 17.3614C158.476 17.3119 158.258 17.2871 158.008 17.2871C157.585 17.2871 157.245 17.4854 156.99 17.8821C156.734 18.2788 156.607 18.8628 156.607 19.6342C156.607 20.3725 156.74 20.9207 157.006 21.2788ZM174.111 24.4441C176.046 24.4441 177.529 23.9978 178.561 23.1052C179.593 22.2127 180.109 20.9951 180.109 19.4524C180.109 18.5157 179.936 17.6948 179.588 16.9895C179.24 16.2843 178.632 15.659 177.762 15.1135C176.893 14.5681 175.671 14.0529 174.095 13.5681C173.508 13.3807 173.055 13.1906 172.734 12.9978C172.414 12.805 172.194 12.5984 172.074 12.378C171.955 12.1576 171.895 11.9207 171.895 11.6672C171.895 11.2926 172.031 10.9895 172.302 10.7581C172.574 10.5267 172.976 10.411 173.508 10.411C174.247 10.411 174.945 10.659 175.603 11.1548C176.26 11.6507 176.986 12.4992 177.779 13.7003C177.985 13.9537 178.192 14.1383 178.398 14.254C178.604 14.3697 178.8 14.4055 178.985 14.3614C179.213 14.2953 179.354 14.1438 179.409 13.9069C179.463 13.67 179.452 13.3311 179.376 12.8904L178.952 9.84905C178.909 9.52949 178.827 9.3036 178.708 9.17136C178.588 9.03913 178.431 8.97302 178.235 8.97302C178.061 8.97302 177.844 9.03362 177.583 9.15484C177.322 9.27605 177.064 9.40001 176.809 9.52674C176.554 9.65346 176.361 9.71682 176.23 9.71682C176.111 9.71682 175.934 9.6507 175.701 9.51847C175.467 9.38624 175.138 9.25401 174.715 9.12178C174.291 8.98955 173.742 8.92343 173.068 8.92343C171.949 8.92343 170.941 9.12729 170.045 9.535C169.149 9.94271 168.442 10.524 167.926 11.2788C167.41 12.0336 167.152 12.9345 167.152 13.9813C167.152 14.9069 167.345 15.7168 167.731 16.411C168.116 17.1052 168.706 17.7003 169.499 18.1962C170.292 18.692 171.292 19.0942 172.498 19.4028C173.28 19.6121 173.881 19.8243 174.299 20.0391C174.717 20.254 175.005 20.4882 175.163 20.7416C175.32 20.9951 175.399 21.276 175.399 21.5846C175.399 21.9923 175.263 22.3284 174.992 22.5929C174.72 22.8573 174.307 22.9895 173.753 22.9895C173.231 22.9895 172.734 22.8766 172.262 22.6507C171.789 22.4248 171.303 22.0364 170.803 21.4854C170.303 20.9345 169.743 20.1796 169.124 19.221C168.939 18.9675 168.73 18.7912 168.497 18.692C168.263 18.5929 168.027 18.5984 167.788 18.7086C167.559 18.7967 167.413 18.984 167.348 19.2705C167.282 19.557 167.299 19.9097 167.396 20.3284L167.902 23.6176C167.978 23.9482 168.086 24.1686 168.228 24.2788C168.369 24.389 168.521 24.4441 168.684 24.4441C168.869 24.4441 169.094 24.3835 169.36 24.2623L170.159 23.8986C170.425 23.7774 170.64 23.7168 170.803 23.7168C170.966 23.7168 171.18 23.7774 171.447 23.8986C171.713 24.0198 172.061 24.1411 172.49 24.2623C172.919 24.3835 173.46 24.4441 174.111 24.4441ZM189.563 23.8243C188.846 24.2044 187.998 24.3945 187.02 24.3945C185.368 24.3945 184.127 23.9923 183.296 23.1879C182.465 22.3835 182.049 21.1163 182.049 19.3862V11.9152C182.049 11.6838 182.027 11.5075 181.984 11.3862C181.94 11.265 181.832 11.1659 181.658 11.0887L180.892 10.8408C180.707 10.7526 180.588 10.6452 180.533 10.5185C180.479 10.3918 180.452 10.2347 180.452 10.0474C180.452 9.81599 180.533 9.62591 180.696 9.47715C180.859 9.32839 181.06 9.25401 181.299 9.25401H182.098C182.196 9.25401 182.299 9.21544 182.408 9.13831C182.516 9.06117 182.663 8.9069 182.848 8.6755L185.863 6.14657C186.08 5.88211 186.297 5.68101 186.515 5.54327C186.732 5.40552 186.949 5.33665 187.167 5.33665C187.417 5.33665 187.612 5.41379 187.753 5.56806L187.798 5.62275C187.91 5.77729 187.965 6.00148 187.965 6.29533L187.965 9.25401H191.372C191.611 9.25401 191.796 9.30635 191.926 9.41103C192.056 9.51572 192.122 9.67825 192.122 9.89864C192.122 10.2072 191.986 10.4716 191.714 10.692L191.653 10.7376C191.38 10.9276 190.965 11.0226 190.41 11.0226H187.965L187.965 18.5598C187.965 19.3862 188.104 19.9978 188.381 20.3945C188.658 20.7912 189.063 20.9895 189.595 20.9895C189.823 20.9895 190.035 20.94 190.231 20.8408C190.426 20.7416 190.603 20.6121 190.761 20.4524C190.918 20.2926 191.068 20.1135 191.209 19.9152C191.35 19.7168 191.486 19.5185 191.616 19.3201C191.725 19.276 191.82 19.2953 191.902 19.378C191.983 19.4606 192.018 19.6287 192.007 19.8821C191.931 20.7747 191.684 21.5598 191.266 22.2375C190.848 22.9152 190.28 23.4441 189.563 23.8243ZM200.238 24.3945C201.618 24.3945 202.835 24.1245 203.889 23.5846C204.943 23.0446 205.764 22.3256 206.35 21.4276C206.937 20.5295 207.23 19.5405 207.23 18.4606C207.23 18.2513 207.192 18.1025 207.116 18.0143C207.04 17.9262 206.948 17.8821 206.839 17.8821C206.763 17.8821 206.674 17.9069 206.57 17.9565C206.467 18.0061 206.35 18.1025 206.22 18.2457C205.992 18.951 205.543 19.5019 204.875 19.8986C204.207 20.2953 203.438 20.4937 202.569 20.4937C201.211 20.4937 200.124 20.0281 199.309 19.097C198.832 18.5511 198.494 17.8245 198.296 16.917L198.28 16.8408H205.731C206.202 16.8408 206.572 16.7164 206.84 16.4676L206.904 16.4028C207.176 16.1108 207.312 15.7113 207.312 15.2044C207.312 14.0364 207.038 12.9758 206.489 12.0226C205.94 11.0694 205.155 10.3146 204.134 9.75814C203.112 9.20167 201.895 8.92343 200.483 8.92343C198.82 8.92343 197.397 9.25401 196.213 9.91517C195.028 10.5763 194.124 11.4992 193.499 12.6838C192.874 13.8683 192.562 15.2485 192.562 16.8243C192.562 18.3229 192.885 19.6424 193.531 20.7829C194.178 21.9234 195.077 22.8105 196.229 23.4441C197.381 24.0777 198.717 24.3945 200.238 24.3945ZM198.087 14.7251C198.087 14.9987 198.095 15.2622 198.11 15.5158L198.112 15.5515H200.646C201.059 15.5515 201.265 15.3201 201.265 14.8573C201.265 13.3477 201.099 12.2678 200.768 11.6176C200.437 10.9675 200.081 10.6424 199.7 10.6424C199.407 10.6424 199.141 10.7664 198.902 11.0143C198.663 11.2623 198.467 11.6838 198.315 12.2788C198.163 12.8738 198.087 13.6893 198.087 14.7251ZM217.189 24.0639C217.45 24.0639 217.648 23.9951 217.784 23.8573C217.92 23.7196 217.988 23.5405 217.988 23.3201C217.988 23.1328 217.939 22.9703 217.841 22.8325C217.743 22.6948 217.58 22.6094 217.352 22.5763L216.129 22.3284C215.923 22.2843 215.771 22.1714 215.673 21.9895C215.575 21.8077 215.526 21.5625 215.526 21.254V15.4358C215.526 14.7857 215.564 14.2513 215.641 13.8325C215.717 13.4138 215.828 13.1025 215.975 12.8986C216.121 12.6948 216.292 12.5929 216.488 12.5929C216.684 12.5929 216.825 12.6645 216.912 12.8077C216.999 12.951 217.048 13.1493 217.059 13.4028L217.075 14.0639C217.097 14.8132 217.3 15.3917 217.686 15.7995C218.072 16.2072 218.667 16.411 219.471 16.411C220.297 16.411 220.97 16.1135 221.492 15.5185C222.013 14.9234 222.274 13.9923 222.274 12.7251C222.274 11.4468 222.024 10.4937 221.524 9.86558C221.025 9.23748 220.307 8.92343 219.373 8.92343C218.601 8.92343 217.89 9.1631 217.238 9.64244C216.586 10.1218 216.062 10.8546 215.665 11.8408C215.599 12.0052 215.538 12.1768 215.483 12.3557L215.455 12.451L215.331 9.88211C215.302 9.57847 215.249 9.35754 215.173 9.21932L215.143 9.17136C215.051 9.03913 214.913 8.97302 214.728 8.97302C214.597 8.97302 214.44 8.99506 214.255 9.03913C214.07 9.08321 213.842 9.16035 213.571 9.27054L208.942 10.6094C208.681 10.7086 208.496 10.827 208.388 10.9648C208.279 11.1025 208.225 11.2595 208.225 11.4358C208.225 11.5901 208.26 11.7168 208.331 11.816C208.401 11.9152 208.513 12.0088 208.665 12.097L209.088 12.1466C209.23 12.2127 209.33 12.3036 209.39 12.4193C209.45 12.535 209.48 12.7251 209.48 12.9895V21.3862C209.48 21.7168 209.452 21.9537 209.398 22.097C209.344 22.2402 209.246 22.3449 209.105 22.411L208.73 22.5598C208.589 22.659 208.477 22.7664 208.396 22.8821C208.314 22.9978 208.274 23.1438 208.274 23.3201C208.274 23.5515 208.341 23.7333 208.477 23.8656C208.613 23.9978 208.801 24.0639 209.04 24.0639H217.189ZM234.351 23.1052C233.319 23.9978 231.836 24.4441 229.902 24.4441C229.25 24.4441 228.709 24.3835 228.28 24.2623C227.851 24.1411 227.503 24.0198 227.237 23.8986C226.971 23.7774 226.756 23.7168 226.593 23.7168C226.43 23.7168 226.216 23.7774 225.949 23.8986L225.151 24.2623C224.885 24.3835 224.659 24.4441 224.474 24.4441C224.311 24.4441 224.159 24.389 224.018 24.2788C223.877 24.1686 223.768 23.9482 223.692 23.6176L223.187 20.3284C223.089 19.9097 223.073 19.557 223.138 19.2705C223.203 18.984 223.35 18.7967 223.578 18.7086C223.817 18.5984 224.053 18.5929 224.287 18.692C224.521 18.7912 224.73 18.9675 224.914 19.221C225.534 20.1796 226.093 20.9345 226.593 21.4854C227.093 22.0364 227.579 22.4248 228.052 22.6507C228.525 22.8766 229.022 22.9895 229.543 22.9895C230.097 22.9895 230.51 22.8573 230.782 22.5929C231.054 22.3284 231.189 21.9923 231.189 21.5846C231.189 21.276 231.111 20.9951 230.953 20.7416C230.796 20.4882 230.508 20.254 230.089 20.0391C229.671 19.8243 229.071 19.6121 228.288 19.4028C227.082 19.0942 226.083 18.692 225.289 18.1962C224.496 17.7003 223.907 17.1052 223.521 16.411C223.135 15.7168 222.942 14.9069 222.942 13.9813C222.942 12.9345 223.2 12.0336 223.717 11.2788C224.233 10.524 224.939 9.94271 225.835 9.535C226.732 9.12729 227.74 8.92343 228.859 8.92343C229.532 8.92343 230.081 8.98955 230.505 9.12178C230.929 9.25401 231.257 9.38624 231.491 9.51847C231.725 9.6507 231.901 9.71682 232.021 9.71682C232.151 9.71682 232.344 9.65346 232.599 9.52674C232.855 9.40001 233.113 9.27605 233.373 9.15484C233.634 9.03362 233.852 8.97302 234.025 8.97302C234.221 8.97302 234.379 9.03913 234.498 9.17136C234.618 9.3036 234.699 9.52949 234.743 9.84905L235.166 12.8904C235.242 13.3311 235.253 13.67 235.199 13.9069C235.145 14.1438 235.003 14.2953 234.775 14.3614C234.59 14.4055 234.395 14.3697 234.188 14.254C233.982 14.1383 233.776 13.9537 233.569 13.7003C232.776 12.4992 232.051 11.6507 231.393 11.1548C230.736 10.659 230.038 10.411 229.299 10.411C228.766 10.411 228.364 10.5267 228.093 10.7581C227.821 10.9895 227.685 11.2926 227.685 11.6672C227.685 11.9207 227.745 12.1576 227.865 12.378C227.984 12.5984 228.204 12.805 228.525 12.9978C228.845 13.1906 229.299 13.3807 229.886 13.5681C231.461 14.0529 232.684 14.5681 233.553 15.1135C234.422 15.659 235.031 16.2843 235.378 16.9895C235.726 17.6948 235.9 18.5157 235.9 19.4524C235.9 20.9951 235.384 22.2127 234.351 23.1052Z" fill="white"/>
<path fill-rule="evenodd" clip-rule="evenodd" d="M14.3891 4.44677C10.8747 0.935218 5.66533 0.429711 2.77639 3.32175C-0.114045 6.2123 0.391444 11.4219 3.89987 14.9349C4.83584 15.8709 5.91432 16.5865 7.05279 17.0995C7.42629 14.9289 8.49726 12.8424 10.1232 11.1294C9.58474 10.9374 9.03275 10.7754 8.45676 10.6179C5.04584 9.68185 3.35088 6.83631 2.95489 3.50026C3.28241 3.89411 3.5806 4.30723 3.87792 4.71912C4.45478 5.51829 5.02833 6.31288 5.80632 6.95331C7.01657 7.94985 8.345 8.33454 9.79833 8.75539C9.85444 8.77164 9.91074 8.78794 9.96723 8.80434C10.6557 9.00384 11.2542 9.29935 11.8032 9.64435C13.2462 8.58983 14.8736 7.88782 16.5536 7.59832C16.0421 6.4598 15.3251 5.38279 14.3891 4.44677ZM8.44626 17.9335C8.66976 15.7599 9.72274 13.6344 11.4102 11.9469C14.9246 8.43533 20.134 7.92832 23.0229 10.8219C25.9134 13.7124 25.4094 18.922 21.8965 22.435C20.209 24.1226 18.0835 25.1756 15.9101 25.4006C15.6206 25.4291 15.3341 25.4441 15.0536 25.4441C13.1847 25.4441 11.5152 24.7886 10.2852 23.5586C8.86925 22.144 8.21527 20.146 8.44626 17.9335ZM13.5866 19.717C14.7386 18.838 15.9851 18.49 17.3411 18.1195C20.752 17.1835 22.4454 14.3379 22.8429 11.0019C22.5182 11.3935 22.2222 11.8038 21.927 12.2129C21.3484 13.0149 20.7732 13.8122 19.9915 14.4549C18.7775 15.4531 17.446 15.8384 15.9862 16.2609L15.8306 16.306C12.4932 17.275 10.8432 20.0965 10.4622 23.3801C10.791 22.985 11.0922 22.575 11.3918 22.167C12.0421 21.2815 12.685 20.4061 13.5866 19.717Z" fill="#0E8784"/>
</svg>
